<mxfile host="app.diagrams.net" modified="2023-06-25T22:00:00.431Z" agent="Mozilla/5.0 (Windows NT 10.0; Win64; x64; rv:109.0) Gecko/20100101 Firefox/113.0" version="21.5.0" etag="KFMeJCs0crofGS5D74ub" type="github">
  <diagram name="Page-1" id="t9oWwZTLnrG6Or3rnIIS">
    <mxGraphModel>
      <root>
        <mxCell id="0" />
        <mxCell id="1" parent="0" />
      </root>
    </mxGraphModel>
  </diagram>
</mxfile>
